<?xml version="1.0" encoding="UTF-8"?>
<svg version="1.1" xmlns="http://www.w3.org/2000/svg" width="512" height="512">
<path d="M0 0 C1.4518596 -0.00302414 2.90371761 -0.00691494 4.35557282 -0.01159257 C8.32738359 -0.0218474 12.29910384 -0.01969718 16.27092195 -0.01541197 C20.56141262 -0.01294018 24.85188176 -0.02196453 29.1423645 -0.02944946 C37.54097517 -0.04218581 45.93955384 -0.04399149 54.33817254 -0.0416492 C61.16614742 -0.03986472 67.99411261 -0.04161847 74.82208633 -0.04587364 C75.79461813 -0.04646883 76.76714992 -0.04706402 77.76915238 -0.04767724 C79.74497953 -0.04888902 81.72080668 -0.05010316 83.69663383 -0.05131962 C102.21762934 -0.06219102 120.73860663 -0.06003454 139.25960316 -0.05393478 C156.19392205 -0.04876576 173.12818341 -0.06002137 190.06249093 -0.07903299 C207.46163534 -0.09841635 224.86075256 -0.10666653 242.25990784 -0.10290974 C252.02380461 -0.10099848 261.78765242 -0.10347798 271.55154037 -0.11762428 C279.86349246 -0.12954536 288.17536543 -0.13093478 296.48731862 -0.11883412 C300.72565303 -0.11295061 304.96384279 -0.11183138 309.20216751 -0.12383652 C313.087131 -0.13471262 316.97182937 -0.1315716 320.85678054 -0.11757483 C322.25710162 -0.11493265 323.65744359 -0.11727933 325.05774413 -0.1253107 C339.96018223 -0.20480471 352.50547673 2.87055023 363.70657349 13.10835266 C372.40795171 22.85318884 374.9333792 32.84913824 374.89587402 45.46852112 C374.90040514 46.58971777 374.90493625 47.71091442 374.90960467 48.86608672 C374.92225422 52.61908458 374.92062791 56.37193742 374.91897583 60.12495422 C374.92496074 62.81746966 374.93170976 65.5099738 374.93933105 68.20248413 C374.95591955 74.7551638 374.96143963 81.30780747 374.96255581 87.86050639 C374.96350735 93.18919787 374.96762294 98.51787751 374.97395706 103.84656525 C374.99156398 118.96731224 375.00079685 134.08803087 374.99929611 149.20878819 C374.9992162 150.02336419 374.99913629 150.83794019 374.99905396 151.67720032 C374.99897219 152.49277545 374.99889043 153.30835059 374.99880619 154.14864013 C374.99799356 167.36162624 375.01712703 180.57449829 375.04533069 193.78745142 C375.07408741 207.36709328 375.08786943 220.94667957 375.08614314 234.52635264 C375.08548017 242.14519873 375.09093118 249.76392524 375.11249924 257.38274384 C375.13074785 263.87037102 375.13502835 270.35782443 375.12148039 276.84546623 C375.11496898 280.15225257 375.11695836 283.45863822 375.13218689 286.76540565 C375.14766086 290.35887808 375.13831563 293.95148291 375.1229248 297.54493713 C375.13321193 298.57813182 375.14349906 299.61132651 375.15409791 300.67583013 C375.05264561 311.43610262 371.71992998 320.19048745 364.62844849 328.26069641 C364.12700317 328.86655579 363.62555786 329.47241516 363.10891724 330.09663391 C357.62285744 336.21005335 349.71739091 340.66413661 341.62844849 342.26069641 C339.60220315 342.35415597 337.57312701 342.3915772 335.54473019 342.39491749 C333.66192582 342.40160425 333.66192582 342.40160425 331.74108499 342.40842611 C330.34554286 342.40833681 328.95000073 342.40814696 327.55445862 342.40786743 C326.0739169 342.41116699 324.59337609 342.41489275 323.11283642 342.41900891 C319.03854263 342.42902672 314.96426358 342.43274536 310.88995922 342.43539822 C306.49781536 342.43930195 302.10568316 342.44888028 297.71354675 342.45761108 C287.10328001 342.47737406 276.49301231 342.48744172 265.88273177 342.49633887 C260.88573414 342.50072225 255.88873758 342.50608895 250.8917408 342.51132774 C234.27961033 342.52834023 217.66748052 342.54283414 201.05534267 342.55007648 C196.74434343 342.55198637 192.43334419 342.5539067 188.12234497 342.55586243 C187.05087107 342.55634617 185.97939718 342.55682991 184.87545437 342.55732831 C167.52048334 342.5656276 150.16558126 342.59096273 132.81064033 342.6234431 C114.99129365 342.65652062 97.17198199 342.67452589 79.35260445 342.67772073 C69.34827624 342.67988523 59.34404857 342.68862517 49.33975029 342.7141819 C40.81906206 342.73589838 32.29849878 342.74393466 23.77778601 342.73421512 C19.43210095 342.72967311 15.08667365 342.73155081 10.74102402 342.75097656 C6.75773424 342.76862832 2.77488987 342.76759442 -1.20840477 342.75207927 C-2.64454684 342.74970623 -4.08071991 342.75401097 -5.51681466 342.76590792 C-19.30402078 342.87299131 -30.22718885 339.66867909 -40.53170776 330.29585266 C-47.68123939 322.90577605 -52.48709831 312.9641038 -52.50297928 302.56413078 C-52.50682042 301.61833338 -52.51066157 300.67253597 -52.51461911 299.69807804 C-52.51331939 298.1441164 -52.51331939 298.1441164 -52.51199341 296.5587616 C-52.51496453 295.45575687 -52.51793565 294.35275213 -52.52099681 293.21632302 C-52.52969333 289.50698544 -52.53119288 285.7976801 -52.53268433 282.08833313 C-52.53731187 279.43404996 -52.54231583 276.77976973 -52.54772949 274.12548828 C-52.56130843 266.90421131 -52.5673371 259.68293989 -52.57174015 252.46165228 C-52.57450382 247.95084993 -52.57874145 243.44004972 -52.58324432 238.92924881 C-52.59543737 226.43558576 -52.60573599 213.94192441 -52.60911942 201.44825554 C-52.60933898 200.64868899 -52.60955855 199.84912245 -52.60978477 199.02532662 C-52.61000304 198.22386271 -52.61022132 197.42239879 -52.61044621 196.5966481 C-52.61088968 194.97261993 -52.61133624 193.34859176 -52.61178589 191.7245636 C-52.61200732 190.91899211 -52.61222875 190.11342061 -52.61245689 189.28343786 C-52.61640274 176.23773832 -52.6338501 163.19209471 -52.65714541 150.14641677 C-52.6808796 136.74655258 -52.69332224 123.34671642 -52.69448733 109.94683087 C-52.69540303 102.42579994 -52.70112869 94.90484185 -52.71930695 87.38383102 C-52.73473599 80.97774191 -52.73981198 74.57174814 -52.73156884 68.16564398 C-52.72767195 64.89956525 -52.73018911 61.63371775 -52.74262619 58.3676548 C-52.75534227 54.81978331 -52.7494701 51.27240138 -52.73904419 47.72453308 C-52.74710059 46.70194299 -52.755157 45.67935289 -52.76345754 44.62577522 C-52.67643097 31.92878969 -48.32513801 21.39185337 -39.74655151 12.01069641 C-28.44142529 1.33243187 -14.79670066 -0.04381876 0 0 Z M-23.24655151 27.88569641 C-23.96584839 28.51733704 -24.68514526 29.14897766 -25.42623901 29.79975891 C-30.40659704 36.10021183 -30.80565146 42.70327383 -30.73231506 50.4099884 C-30.73487834 51.40504347 -30.73744161 52.40009854 -30.74008256 53.4253068 C-30.74500671 56.74495277 -30.72854981 60.06413952 -30.71212769 63.38374329 C-30.71128112 65.76912933 -30.71175713 68.15451615 -30.7134552 70.53990173 C-30.71422619 76.33548837 -30.70124185 82.13092567 -30.68214222 87.92647821 C-30.66065416 94.6731178 -30.65620304 101.41973648 -30.65277771 108.1664055 C-30.64622009 120.19689071 -30.62627767 132.22731472 -30.59786987 144.25776672 C-30.57031143 155.94070633 -30.5490866 167.62362928 -30.53634644 179.30659485 C-30.53555827 180.02734599 -30.53477009 180.74809713 -30.53395804 181.49068922 C-30.53004278 185.10666928 -30.52625169 188.72264946 -30.52252233 192.33862972 C-30.49144789 222.31269482 -30.4384071 252.28668844 -30.37155151 282.26069641 C-24.92070607 277.65385605 -24.92070607 277.65385605 -19.74977112 272.73898315 C-19.12353851 272.10978973 -18.49730591 271.48059631 -17.85209656 270.83233643 C-17.19166855 270.16360001 -16.53124054 269.49486359 -15.85079956 268.80586243 C-15.13432251 268.08471252 -14.41784546 267.36356262 -13.67965698 266.62055969 C-12.13450297 265.06495965 -10.59045102 263.50826431 -9.04739952 261.95057869 C-6.59826419 259.47927979 -4.14506081 257.01208826 -1.69059753 254.54608154 C5.28422692 247.5377991 12.25492108 240.52545144 19.21511841 233.50263977 C23.48308979 229.19685948 27.75847754 224.89856157 32.0385952 220.60485649 C33.66035895 218.97508069 35.27935036 217.34254099 36.89541054 215.70710945 C60.27604159 192.05111253 60.27604159 192.05111253 75.94094849 191.88569641 C94.79021001 192.23819244 105.46624151 206.94413635 117.77297974 219.50117493 C119.35592997 221.11411244 120.9448763 222.72094257 122.53469849 224.32710266 C123.01797607 224.82383987 123.50125366 225.32057709 123.99917603 225.83236694 C125.17149136 227.01352233 126.39580063 228.14264877 127.62844849 229.26069641 C128.28844849 229.26069641 128.94844849 229.26069641 129.62844849 229.26069641 C131.00336147 227.75282481 132.3020931 226.1752988 133.56594849 224.57319641 C134.36903442 223.56901672 135.17212036 222.56483704 135.99954224 221.53022766 C136.42734985 220.99478333 136.85515747 220.45933899 137.29592896 219.90766907 C139.52577781 217.15161184 141.82862925 214.45838317 144.12844849 211.76069641 C147.50191931 207.79221603 150.84023099 203.80050648 154.12844849 199.76069641 C157.87632647 195.15616061 161.69828293 190.6205045 165.54251099 186.09663391 C168.44089672 182.68010101 171.29999949 179.23564804 174.12844849 175.76069641 C177.87632647 171.15616061 181.69828293 166.6205045 185.54251099 162.09663391 C188.44089672 158.68010101 191.29999949 155.23564804 194.12844849 151.76069641 C198.39589452 146.52024204 202.74264554 141.35193496 207.13235474 136.21382141 C208.56484864 134.51903989 209.98026315 132.80870673 211.34329224 131.05757141 C215.684738 125.52553525 221.61532277 121.52106242 228.62844849 120.26069641 C240.25793416 119.22609127 249.11687899 120.29300681 258.60501099 127.83100891 C262.94846456 131.93646503 266.56783443 136.78962844 270.30813599 141.43647766 C272.51173255 144.11863307 274.78888673 146.69696062 277.12844849 149.26069641 C281.04736101 153.56061432 284.72015718 158.01989188 288.37844849 162.54194641 C290.56346418 165.18217371 292.82016239 167.72799361 295.12844849 170.26069641 C299.04736101 174.56061432 302.72015718 179.01989188 306.37844849 183.54194641 C308.56346418 186.18217371 310.82016239 188.72799361 313.12844849 191.26069641 C317.04736101 195.56061432 320.72015718 200.01989188 324.37844849 204.54194641 C326.56346418 207.18217371 328.82016239 209.72799361 331.12844849 212.26069641 C335.07584552 216.59320535 338.78936601 221.07999469 342.48001099 225.63179016 C346.91151712 231.07119017 346.91151712 231.07119017 351.62844849 236.26069641 C351.95844849 236.26069641 352.28844849 236.26069641 352.62844849 236.26069641 C352.69852558 210.69600179 352.75143033 185.13132157 352.783885 159.56655025 C352.79935471 147.69641853 352.82044629 135.82634648 352.85476685 123.95625305 C352.88466593 113.61043764 352.90402273 103.26466545 352.91071397 92.91880804 C352.91462534 87.44061881 352.92381994 81.96255322 352.94563866 76.48440361 C352.96601174 71.32740123 352.97228057 66.17057335 352.96777153 61.01353455 C352.96859636 59.12171035 352.97455706 57.22988027 352.98606491 55.3380909 C353.00102189 52.75230036 352.99739046 50.16716604 352.98921204 47.58135986 C352.99795056 46.83523294 353.00668908 46.08910601 353.01569241 45.32036918 C352.95497408 38.2030251 350.71513705 32.34738498 345.62844849 27.26069641 C339.49700147 23.43498262 333.9102587 22.1369848 326.6972084 22.13206196 C325.50148216 22.12883751 324.30575593 22.12561307 323.07379556 22.12229091 C321.10879401 22.12461381 321.10879401 22.12461381 319.10409546 22.12698364 C317.69551207 22.12511521 316.2869292 22.12281438 314.87834716 22.12011832 C311.00767526 22.11399777 307.13702495 22.11413422 303.26634932 22.1153127 C299.09171687 22.11551664 294.91709137 22.10999851 290.74246216 22.10525513 C282.56322615 22.0969464 274.38399735 22.09420018 266.20475748 22.09364275 C259.55592482 22.09316765 252.90709454 22.09111323 246.25826263 22.08794212 C227.40795842 22.07913461 208.55765991 22.07452285 189.70735362 22.0752726 C188.69099266 22.07531255 187.6746317 22.07535251 186.62747192 22.07539368 C185.60986997 22.07543456 184.59226802 22.07547544 183.54382965 22.07551756 C167.05410881 22.07592396 150.56441081 22.06635612 134.07469657 22.05225531 C117.14351739 22.03789125 100.21234936 22.03098516 83.28116393 22.03184909 C73.77549891 22.03218107 64.26985783 22.02943359 54.7641983 22.01867104 C46.67023034 22.0095656 38.57629717 22.00739111 30.4823263 22.01418046 C26.35365897 22.01744556 22.22505838 22.01750271 18.0963974 22.00882721 C14.31382066 22.00096079 10.53136358 22.00239509 6.74878976 22.01111134 C4.73854794 22.01337079 2.72830241 22.00581875 0.71807504 21.9978717 C-12.21255795 21.90357318 -12.21255795 21.90357318 -23.24655151 27.88569641 Z M222.31594849 151.32319641 C221.84157349 151.89682922 221.36719849 152.47046204 220.87844849 153.06147766 C219.45363486 154.78806146 218.03985825 156.52314819 216.62844849 158.26069641 C215.8614563 159.19784485 215.09446411 160.13499329 214.30422974 161.10054016 C212.84767535 162.88135441 211.39326377 164.66392334 209.94094849 166.44819641 C206.90477483 170.14084005 203.80994878 173.78191429 200.71438599 177.42475891 C197.81600026 180.84129181 194.95689748 184.28574479 192.12844849 187.76069641 C188.38057051 192.36523222 184.55861404 196.90088833 180.71438599 201.42475891 C177.81600026 204.84129181 174.95689748 208.28574479 172.12844849 211.76069641 C168.38057051 216.36523222 164.55861404 220.90088833 160.71438599 225.42475891 C157.81600026 228.84129181 154.95689748 232.28574479 152.12844849 235.76069641 C148.69477731 239.96911289 145.24052316 244.15897513 141.75344849 248.32319641 C141.28874146 248.8839386 140.82403442 249.44468079 140.34524536 250.02241516 C135.43708972 255.85758702 135.43708972 255.85758702 131.64797974 256.70210266 C128.2366959 256.88927045 125.60425745 256.91647776 122.70263672 254.96647644 C122.09147003 254.39825165 121.48030334 253.83002686 120.85061646 253.24458313 C120.16038391 252.60736328 119.47015137 251.97014343 118.75900269 251.31361389 C115.21751592 247.90117778 111.71882381 244.45353178 108.26126099 240.95600891 C107.50046234 240.19142365 106.7396637 239.42683838 105.95581055 238.63908386 C103.55255836 236.22372259 101.15260808 233.80512244 98.75344849 231.38569641 C95.57140069 228.17712103 92.38609734 224.97182977 89.19876099 221.76850891 C88.46859772 221.0300473 87.73843445 220.29158569 86.98614502 219.53074646 C86.3113913 218.85268951 85.63663757 218.17463257 84.94143677 217.47602844 C84.34823639 216.87759125 83.75503601 216.27915405 83.14385986 215.6625824 C80.90298303 213.58957841 79.57270697 213.25177777 76.50344849 212.76069641 C72.43813687 213.28525275 71.8183258 213.61156878 68.96511841 216.22018433 C68.26510712 216.85929308 67.56509583 217.49840183 66.84387207 218.15687752 C62.95703113 221.84791406 59.14856316 225.61051843 55.36672974 229.40888977 C54.4779866 230.29748688 53.58924347 231.18608398 52.67356873 232.10160828 C50.26114464 234.51460551 47.85094615 236.92978441 45.44174957 239.34600139 C42.91448408 241.87956093 40.38434522 244.41024783 37.85452271 246.94125366 C33.07516191 251.72371004 28.29835375 256.50870749 23.52248001 261.29464585 C18.0806185 266.7477238 12.63588299 272.19792834 7.19091606 277.64790523 C-3.99975163 288.84899714 -15.18684327 300.05365358 -26.37155151 311.26069641 C-23.25497042 315.93556805 -19.67477354 318.54968828 -14.37155151 320.26069641 C-9.63060537 320.83576977 -4.90607297 320.8017002 -0.13803101 320.76863098 C1.31098319 320.77324397 2.7599927 320.77959956 4.20899248 320.78753996 C8.17755339 320.80420195 12.14572838 320.79600134 16.11429048 320.78359509 C20.39930445 320.77453403 24.68425268 320.78851955 28.96925354 320.79951477 C37.35834287 320.81729332 45.74728897 320.81346297 54.13638389 320.80186421 C60.95488209 320.79282755 67.77334018 320.79160689 74.59184265 320.79595947 C75.56260074 320.7965724 76.53335884 320.79718534 77.53353384 320.79781684 C79.50566273 320.79909576 81.47779161 320.80039261 83.44992048 320.80170721 C101.93889389 320.81311106 120.42778795 320.80000235 138.91674834 320.77850574 C154.77820766 320.76063494 170.63954988 320.7637391 186.50100708 320.78218079 C204.92420298 320.80359093 223.34732934 320.81201244 241.77053595 320.79973173 C243.73537539 320.79845755 245.70021485 320.79720006 247.66505432 320.79595947 C248.63177143 320.79534237 249.59848853 320.79472527 250.59450009 320.79408947 C257.40413746 320.790637 264.21373068 320.79646269 271.02336121 320.80587769 C279.32301027 320.81710063 287.62250802 320.81405139 295.92213976 320.79275471 C300.15607825 320.78224828 304.38976453 320.77811547 308.6237011 320.79135132 C312.50122977 320.80328959 316.37827298 320.7966894 320.25575775 320.77544111 C321.65672354 320.77098108 323.05773053 320.77322791 324.45866972 320.78294426 C333.26246571 320.83930953 339.75562336 320.46562466 346.65188599 314.51460266 C347.09790161 313.9564386 347.54391724 313.39827454 348.00344849 312.82319641 C348.46493286 312.26761047 348.92641724 311.71202454 349.40188599 311.13960266 C356.01633225 301.00728211 354.44901477 282.90545055 352.62844849 271.26069641 C350.34338133 265.42380674 346.18793978 261.69497448 341.41995239 257.8026886 C338.44450547 255.24164706 336.05176604 252.22349103 333.56594849 249.19819641 C332.57760729 248.03847126 331.58672682 246.88090524 330.59329224 245.72554016 C330.10457642 245.15432434 329.6158606 244.58310852 329.11233521 243.99458313 C326.61949325 241.08175595 324.12382082 238.17135581 321.62844849 235.26069641 C320.62843508 234.09404123 319.62843508 232.92737457 318.62844849 231.76069641 C318.13344849 231.18319641 317.63844849 230.60569641 317.12844849 230.01069641 C264.62844849 168.76069641 264.62844849 168.76069641 263.12649536 167.00801086 C262.13354254 165.84983561 261.14005899 164.69211516 260.14602661 163.53486633 C257.53350894 160.49193552 254.93262752 157.43997255 252.34719849 154.37397766 C251.80837036 153.73782532 251.26954224 153.10167297 250.71438599 152.44624329 C249.68490813 151.23039444 248.6586668 150.011795 247.63626099 148.78999329 C243.12129943 143.27708587 243.12129943 143.27708587 236.75344849 140.82319641 C230.23880957 141.73524586 226.27304838 146.42614024 222.31594849 151.32319641 Z " fill="#000000" transform="translate(137.37155151367188,41.73930358886719)"/>
<path d="M0 0 C3.64965928 7.00734582 1.32992596 15.32166225 -0.69384766 22.58154297 C-0.93494672 23.48550717 -1.17604578 24.38947138 -1.42445087 25.32082844 C-2.22165187 28.29794418 -3.0364692 31.2699254 -3.8515625 34.2421875 C-4.42056526 36.35259754 -4.98845926 38.46330679 -5.55531311 40.57429504 C-6.75653382 45.03837756 -7.96549144 49.5002611 -9.18075562 53.96054077 C-11.06591195 60.88002533 -12.93226947 67.80449364 -14.79614258 74.72973633 C-19.75774991 93.14758729 -24.75514564 111.55556952 -29.81275177 129.94729614 C-30.96327317 134.13558723 -32.10700817 138.32574035 -33.25238037 142.51544189 C-34.10051161 145.5984823 -34.96370264 148.67700327 -35.82861328 151.75537109 C-36.32770426 153.56983418 -36.82628123 155.38443878 -37.32421875 157.19921875 C-37.54473404 157.9643428 -37.76524933 158.72946686 -37.9924469 159.51777649 C-40.10471129 167.33089233 -40.62997568 174.7618321 -36.8984375 182.11328125 C-31.18215708 189.49553644 -23.92821948 190.95703567 -15.2109375 193.23828125 C-13.7794532 193.62515156 -12.34833807 194.01339011 -10.91757202 194.40290833 C-7.16979903 195.41915078 -3.41727035 196.41653839 0.33674622 197.40943146 C3.85724979 198.34354137 7.37324913 199.29423369 10.88964844 200.24365234 C18.79184511 202.37303675 26.70163836 204.47338386 34.61240005 206.57068253 C41.18130617 208.31332421 47.74850642 210.06239566 54.31604195 211.81019402 C56.88829841 212.49468681 59.4606206 213.1789322 62.03294373 213.86317444 C79.8063031 218.59209036 97.56946621 223.35885816 115.33168411 228.12942123 C123.04130279 230.20005541 130.75105937 232.27017585 138.4609375 234.33984375 C139.74744674 234.68521022 139.74744674 234.68521022 141.05994606 235.03755379 C153.70113094 238.43076424 166.34459511 241.81538054 178.98980141 245.193573 C181.78491273 245.94029762 184.57998294 246.68717595 187.37504578 247.43408203 C195.63328036 249.64070517 203.89175203 251.84642605 212.1511755 254.04859543 C228.64236142 258.44636051 245.12867676 262.85744287 261.57873726 267.40699768 C263.70457916 267.99459083 265.8308374 268.58065029 267.95726013 269.1661377 C269.31924707 269.54125 270.68123137 269.91637191 272.04321289 270.29150391 C272.70032351 270.47244976 273.35743414 270.65339561 274.03445721 270.83982468 C278.38810406 272.04024311 282.7362978 273.25927241 287.08374023 274.48193359 C289.2900389 275.09141038 291.4964905 275.70033397 293.703125 276.30859375 C294.66869827 276.58546524 295.63427155 276.86233673 296.62910461 277.14759827 C305.00378034 279.43006131 312.7250602 280.49666142 320.67578125 276.4609375 C325.72381063 272.55211144 328.17360304 268.32025155 329.9296875 262.26171875 C330.12859589 261.58678879 330.32750427 260.91185883 330.53244019 260.21647644 C331.23022527 257.81647073 331.89886511 255.40967103 332.5625 253 C332.82760376 252.04240784 333.09270752 251.08481567 333.36584473 250.09820557 C335.82776281 241.17247667 338.23898841 232.23296705 340.62939453 223.2878418 C341.54045964 219.88404749 342.46095175 216.48291504 343.3828125 213.08203125 C343.65787628 212.0424678 343.93294006 211.00290436 344.21633911 209.93183899 C347.24818126 198.80002569 347.24818126 198.80002569 351.25 195.6875 C354.74484933 194.64849074 357.99472588 194.30835857 361.5625 195 C364.58339981 196.7475743 366.97858883 198.83217766 368.5625 202 C369.24115514 209.70956877 367.04915417 216.62461062 364.984375 223.9921875 C364.61208899 225.34665374 364.24054061 226.70132292 363.86968994 228.05618286 C363.09249397 230.88707486 362.30845103 233.71594668 361.51904297 236.54345703 C360.51523053 240.13993591 359.5255157 243.74010107 358.54059982 247.34179497 C357.77473447 250.13830066 357.00286432 252.93312105 356.22910309 255.72745132 C355.8625104 257.05291851 355.49735263 258.37878353 355.13375092 259.70507431 C349.29907252 280.93342 349.29907252 280.93342 343.125 287.375 C342.38378906 288.16648437 341.64257812 288.95796875 340.87890625 289.7734375 C337.41396005 293.10399287 333.9602419 296.01500497 329.625 298.125 C328.99722656 298.43695313 328.36945313 298.74890625 327.72265625 299.0703125 C312.52000018 305.61322777 296.30533551 301.60122259 281.02734375 297.3046875 C279.17417295 296.80288292 277.32041449 296.30324443 275.46612549 295.80558777 C270.50352089 294.46764063 265.54922755 293.1010716 260.59594345 291.72908401 C255.3381145 290.27859639 250.07269065 288.8562226 244.80786133 287.43139648 C236.18160507 285.09389869 227.55923706 282.7425944 218.93945312 280.38134766 C207.81826145 277.33629694 196.68620299 274.3334224 185.546875 271.35546875 C184.30733377 271.02399243 184.30733377 271.02399243 183.04275131 270.68581963 C179.73678705 269.80180905 176.43077547 268.91797608 173.12464714 268.03457928 C164.83196316 265.81842093 156.54230701 263.59103239 148.25283432 261.36289787 C130.10526565 256.48519904 111.9544294 251.61973379 93.80250549 246.75827026 C83.36852059 243.96372577 72.93497955 241.1675501 62.50268555 238.36669922 C58.47707096 237.28605763 54.45143172 236.20550791 50.42578125 235.125 C49.44519178 234.86177067 48.46460232 234.59854134 47.45429802 234.32733536 C35.78315668 231.19497519 24.10795614 228.07882097 12.42485046 224.99137878 C7.18397291 223.60631785 1.94507992 222.21382941 -3.29319668 220.81896687 C-6.65668824 219.92392284 -10.02119164 219.03323503 -13.38876343 218.15365601 C-16.99130571 217.21088997 -20.58970445 216.25366251 -24.1875 215.29296875 C-25.2107991 215.02955688 -26.23409821 214.76614502 -27.28840637 214.49475098 C-39.46710455 211.20380663 -49.97759739 204.93083897 -56.8125 194.0625 C-57.71955321 192.39201033 -58.59711863 190.70500452 -59.4375 189 C-59.94796875 188.00806641 -59.94796875 188.00806641 -60.46875 186.99609375 C-66.00687114 173.89433495 -62.04373592 158.02751259 -58.3125 145 C-57.83818543 143.27718637 -57.36638901 141.55367805 -56.89672852 139.82958984 C-55.77919749 135.73620335 -54.64953383 131.6463597 -53.51513672 127.55761719 C-51.00859177 118.48280648 -48.58659798 109.38555469 -46.16015625 100.2890625 C-45.20149834 96.69787295 -44.24258175 93.10675249 -43.28369141 89.515625 C-42.92247004 88.16266264 -42.92247004 88.16266264 -42.55395126 86.78236771 C-38.87646501 73.01015352 -35.18833143 59.24096906 -31.45604324 45.4834938 C-30.07799727 40.39552333 -28.72322617 35.30193927 -27.38372326 30.20369148 C-26.50051208 26.85365734 -25.60358479 23.50739264 -24.70376778 20.16178513 C-24.28379194 18.58803419 -23.8697254 17.0126926 -23.46201897 15.43571854 C-22.89985645 13.26432434 -22.31684118 11.09955352 -21.72875977 8.93505859 C-21.40561295 7.71160736 -21.08246613 6.48815613 -20.74952698 5.22763062 C-19.2409727 1.51653621 -17.47451042 -0.42374917 -14.4375 -3 C-9.19446852 -5.06961769 -4.25045043 -3.48754907 0 0 Z " fill="#000000" transform="translate(62.4375,210)"/>
<path d="M0 0 C8.04495995 7.21112533 13.32119682 17.92789532 14.0859375 28.671875 C14.3575139 42.26498858 11.2330352 53.36185707 1.84765625 63.48046875 C-8.53485152 73.4180119 -19.692931 75.82739256 -33.58984375 75.6015625 C-44.99556676 75.13100619 -54.60295831 69.26101342 -62.40234375 61.19921875 C-71.3376048 50.69449069 -72.88317397 38.57389989 -72.15234375 25.32421875 C-70.37543916 14.31644543 -63.89585832 4.14913967 -55.15234375 -2.67578125 C-36.81823056 -13.93137598 -17.13633142 -13.34208018 0 0 Z M-45.46484375 19.69921875 C-49.56951048 24.84373438 -50.81964281 29.76244465 -50.15234375 36.32421875 C-47.87787914 44.11460053 -43.71228899 48.61289996 -36.83984375 52.69921875 C-30.16530826 54.2514363 -23.99422094 54.10585082 -17.97265625 50.65625 C-12.93336016 46.96869642 -9.44008541 42.5053787 -8.15234375 36.32421875 C-7.64061513 30.79754964 -8.2620771 26.07830221 -11.15234375 21.32421875 C-15.4207674 16.74579785 -19.3625376 12.66219854 -25.82421875 12.0859375 C-34.68212251 11.8723586 -39.33018602 13.0643731 -45.46484375 19.69921875 Z " fill="#000000" transform="translate(221.15234375,116.67578125)"/>
</svg>
