<?xml version="1.0" encoding="UTF-8"?>
<svg version="1.1" xmlns="http://www.w3.org/2000/svg" width="512" height="512">
<path d="M0 0 C0.9420504 0.47778161 1.8841008 0.95556321 2.85469818 1.44782305 C3.85936882 1.94316687 4.86403946 2.43851069 5.89915466 2.94886494 C8.98272931 4.47271 12.05651261 6.01513866 15.13008881 7.5590291 C16.90027908 8.43577304 18.67115953 9.31112531 20.44283295 10.18486834 C25.73402769 12.79944348 31.01057823 15.44278138 36.28633881 18.08832598 C38.28185384 19.08704694 40.2774623 20.08558124 42.27315521 21.0839467 C46.51909775 23.20847983 50.76441958 25.33424608 55.0092392 27.4610219 C61.74565475 30.83608543 68.48366273 34.20796153 75.22188568 37.57941484 C84.68665487 42.31544636 94.15086558 47.05259189 103.61446381 51.7909627 C104.21149077 52.08989009 104.80851774 52.38881748 105.42363644 52.69680327 C110.26503163 55.12087163 115.10638973 57.54501406 119.94774628 59.9691596 C124.18038476 62.08850623 128.41303809 64.20782323 132.64571381 66.32709551 C133.24198798 66.62564666 133.83826216 66.92419781 134.45260525 67.23179597 C144.4612357 72.24299838 154.47068746 77.25255859 164.48068237 82.26103497 C171.15465193 85.60048394 177.82764689 88.94186952 184.49985504 92.28483629 C188.67614474 94.37675726 192.853296 96.46695346 197.03066254 98.55672312 C198.94032477 99.51247623 200.84964719 100.46890874 202.75856781 101.42614222 C213.79053789 106.95762537 224.86950637 112.37482008 236.01133728 117.68175185 C243.50394887 121.25175247 250.95500204 124.89468117 258.38008881 128.6034627 C259.63312086 129.22764816 260.8862262 129.85168652 262.13939667 130.47559404 C265.45340263 132.12620989 268.76619425 133.77924649 272.07855225 135.4331665 C274.15852791 136.4716658 276.23872961 137.50971103 278.31899261 138.5476346 C284.86107567 141.81189814 291.40239261 145.07768915 297.94254875 148.34581172 C305.43681011 152.09068689 312.93368799 155.83025717 320.43278885 159.56543148 C326.28087343 162.47865699 332.12663726 165.39650374 337.97066879 168.31785119 C341.44164501 170.05281786 344.91354567 171.78586695 348.38790131 173.51405764 C351.64116128 175.13242794 354.89148887 176.75654271 358.13969803 178.3850255 C359.88832389 179.25990391 361.63990825 180.12886141 363.39159393 180.99759722 C378.35497078 188.51884026 378.35497078 188.51884026 382.44258881 195.0590291 C382.91309662 195.7912166 383.38360443 196.5234041 383.86837006 197.2777791 C388.15198044 205.02275886 388.90941607 212.55181932 386.92305756 221.1371541 C382.65843588 234.162107 371.16606591 240.04821766 359.6914444 245.90197039 C357.23780046 247.13317065 354.78231095 248.36005948 352.32466888 249.58319902 C350.96134625 250.26539812 349.59819712 250.94794404 348.2352066 251.63080645 C344.55850474 253.47156415 340.87934345 255.30735383 337.19964433 257.14211106 C333.31735665 259.07882349 329.43721031 261.01981741 325.55677032 262.96022844 C319.0292669 266.22351288 312.50022842 269.48370856 305.9701767 272.74189043 C298.48191574 276.47820024 290.99571938 280.21861873 283.51073152 283.9614808 C275.47408814 287.98014404 267.43591284 291.99573578 259.3973062 296.01047015 C257.1160153 297.15006356 254.83499906 298.290205 252.55404854 299.43047953 C248.92284728 301.24556648 245.29060128 303.05854766 241.65763664 304.87010241 C240.3462736 305.52435982 239.03521574 306.1792295 237.72454071 306.83486414 C229.52575429 310.93540948 221.28072839 314.92906662 213.00421906 318.87047625 C201.82209656 324.19967465 190.72919054 329.69483809 179.65645599 335.24701738 C177.62849052 336.26196336 175.60043174 337.27672292 173.57228851 338.29131365 C169.26082201 340.44860823 164.94997583 342.60713533 160.63963318 344.76667452 C153.82469109 348.18098296 147.00816946 351.59212976 140.19142914 355.00284624 C130.64273546 359.78083728 121.09460247 364.55994631 111.54708099 369.3402791 C110.64367123 369.79260484 110.64367123 369.79260484 109.72201076 370.25406848 C106.05525882 372.0899746 102.38852518 373.9259173 98.72179794 375.76187277 C93.18311543 378.5351289 87.64441587 381.30835098 82.10567474 384.08149004 C81.4980925 384.38569522 80.89051027 384.68990041 80.26451644 385.00332393 C70.1429609 390.07093806 60.02061517 395.1369715 49.89772534 400.20191991 C43.11785067 403.59434902 36.33895571 406.98872563 29.56080389 410.38459563 C25.36361262 412.48690928 21.16560162 414.58758181 16.96736145 416.68779993 C15.01705405 417.66389258 13.06709372 418.64067902 11.11750031 419.61819696 C8.46479331 420.94813811 5.81087792 422.27563596 3.1566391 423.60251665 C2.37953103 423.99286817 1.60242296 424.38321968 0.80176616 424.78540003 C-7.6062709 428.98127358 -16.32698346 430.12631049 -25.57694244 427.9105916 C-33.50448457 424.66182653 -39.68663352 419.18521223 -43.17850494 411.3559041 C-44.69510932 407.41444639 -45.09439537 404.21665627 -45.18241119 399.9965291 C-45.21979401 398.84024004 -45.25717682 397.68395098 -45.29569244 396.49262285 C-44.14533295 385.86498972 -37.67793445 375.94265309 -32.90433502 366.51190996 C-32.09710453 364.90949177 -31.29027657 363.30687074 -30.48381805 361.70406389 C-28.75514422 358.26987325 -27.02416119 354.83686033 -25.29149055 351.40468454 C-22.55012506 345.97310828 -19.81716963 340.53732855 -17.08589935 335.10067034 C-9.32127961 319.64736849 -1.55131572 304.19679047 6.24019623 288.75702715 C10.54987358 280.21674209 14.84951599 271.67148504 19.13797933 263.12052685 C21.40457268 258.6021612 23.67631584 254.08655291 25.96055412 249.57707834 C28.10747333 245.3386504 30.24124554 241.0938631 32.36523628 236.84390116 C33.14520365 235.28907165 33.92996089 233.73663394 34.71993256 232.18686342 C41.41429738 220.31571874 41.41429738 220.31571874 41.43286037 207.28549147 C40.3471476 204.66621635 39.10135027 202.1913013 37.78292084 199.68109941 C37.29171816 198.7015592 36.80051548 197.72201899 36.29442787 196.71279573 C35.19233993 194.51910481 34.08070368 192.33019317 32.96118164 190.14534807 C31.02097833 186.35835012 29.12753835 182.5488366 27.23842621 178.73615313 C23.14910739 170.49158936 19.02788563 162.26321562 14.90300512 154.03639936 C12.83179806 149.90412233 10.76329222 145.77049363 8.69457245 141.636971 C3.46715468 131.19311613 -1.76371647 120.75099251 -6.99491119 110.3090291 C-12.68023025 98.96048398 -18.3649064 87.61161906 -24.04572475 76.26082015 C-26.50150764 71.35423029 -28.95923506 66.44862097 -31.41846967 61.5437603 C-32.93953458 58.50907097 -34.45895497 55.47356053 -35.97792244 52.43782091 C-36.68310479 51.02933224 -37.3889802 49.62119032 -38.09559059 48.21341753 C-39.05769635 46.29639408 -40.01734636 44.37816105 -40.97638702 42.45960283 C-41.51425402 41.38608946 -42.05212101 40.31257608 -42.606287 39.206532 C-45.96059977 32.17868871 -46.02946417 23.3998135 -44.22147369 15.85199785 C-40.97270862 7.92445573 -35.49609432 1.74230678 -27.66678619 -1.74956465 C-17.85874513 -5.52352827 -9.23574137 -4.50843976 0 0 Z M-25.86991119 17.5590291 C-28.38689202 21.80640334 -28.70159926 25.74983872 -27.86991119 30.5590291 C-26.01550592 35.5961214 -23.61867332 40.33511128 -21.20389557 45.1190877 C-20.4863546 46.57293441 -19.7703195 48.02752515 -19.05567169 49.48279619 C-17.11772771 53.41660713 -15.15708115 57.33867137 -13.19061089 61.25828552 C-11.54883385 64.53552604 -9.91792491 67.81812268 -8.28683519 71.10069191 C-4.43881434 78.84399679 -0.57191033 86.57766256 3.30684662 94.30561113 C7.30530882 102.27290288 11.27119691 110.25580551 15.22151804 118.24706066 C18.61854198 125.11611758 22.03562861 131.97492881 25.46894217 138.82591927 C27.51752486 142.91427947 29.55828149 147.00608546 31.57975006 151.10792971 C33.48059655 154.96282348 35.40621799 158.80429084 37.35152054 162.63693285 C38.06031579 164.04374209 38.7603062 165.45502811 39.45066452 166.87097597 C43.13409384 175.32103933 43.13409384 175.32103933 50.05536652 180.76747942 C51.40479579 181.07321684 52.76439579 181.33695405 54.13008881 181.5590291 C55.55369478 181.95919817 56.97431823 182.37010118 58.39206696 182.79055071 C59.93586442 183.20044481 61.48085108 183.60587855 63.02681732 184.00751543 C63.87861572 184.23240145 64.73041412 184.45728746 65.6080246 184.68898821 C68.40732057 185.4269817 71.20812726 186.15905715 74.00899506 186.89106035 C75.98279828 187.41012705 77.95650571 187.92955812 79.93012238 188.44933367 C85.12675056 189.81685556 90.32468782 191.17933541 95.52291107 192.54077959 C100.73328348 193.90638036 105.94236174 195.27689841 111.15157318 196.64691973 C120.63585212 199.14024123 130.1205222 201.63204101 139.60839081 204.11167192 C143.57530955 205.14917686 147.53920876 206.19761035 151.5021286 207.25028276 C153.6045956 207.80591954 155.70706344 208.36155316 157.80953217 208.9171834 C158.79693421 209.1812313 159.78433626 209.4452792 160.80165958 209.71732855 C162.17435206 210.07900641 162.17435206 210.07900641 163.5747757 210.44799089 C164.38343551 210.6628851 165.19209532 210.87777931 166.02525997 211.09918547 C168.25948818 211.66574738 168.25948818 211.66574738 171.13008881 211.5590291 C171.13008881 212.2190291 171.13008881 212.8790291 171.13008881 213.5590291 C170.56416016 213.64308504 169.99823151 213.72714098 169.4151535 213.81374407 C159.58961245 215.42951457 150.06220198 218.14770263 140.46602631 220.75824785 C138.54633445 221.27706783 136.62654279 221.79551863 134.70665741 222.313622 C130.6865758 223.39945293 126.66729472 224.48818009 122.64864349 225.57929277 C117.57543155 226.95672336 112.50094716 228.32938602 107.42591667 229.70009947 C102.50134845 231.03036384 97.57739955 232.36291375 92.65352631 233.69574785 C91.75131725 233.9398156 90.8491082 234.18388334 89.91955948 234.43534708 C88.59803312 234.79309686 88.59803312 234.79309686 87.24980927 235.1580739 C86.37526407 235.39303355 85.50071888 235.6279932 84.59967232 235.87007284 C82.83968572 236.35271233 81.08428731 236.85239998 79.33392143 237.3688426 C74.5011476 238.77345261 69.8776726 239.76163919 64.87355804 240.33866167 C56.63623122 241.52443648 49.33384386 243.02707059 43.55340958 249.39967203 C37.41000836 257.70381893 33.1971019 267.31786933 28.88734818 276.65163946 C26.97399882 280.74617259 24.96129223 284.79136685 22.95943451 288.84314775 C19.19360833 296.50258455 15.51777894 304.20164552 11.87322521 311.91939569 C7.72050992 320.70146924 3.46612686 329.43290594 -0.79608154 338.16222858 C-7.41267301 351.71976905 -13.97426685 365.30271888 -20.45194244 378.92719316 C-20.77759123 379.61082682 -21.10324001 380.29446047 -21.43875694 380.99881029 C-22.34337709 382.89913243 -23.24547115 384.80062841 -24.14652252 386.70264482 C-24.65145737 387.76744192 -25.15639221 388.83223902 -25.67662811 389.92930269 C-27.74637193 394.49055063 -28.5576193 398.57550051 -27.86991119 403.5590291 C-25.75291649 407.6418046 -24.08342353 409.80739544 -19.86991119 411.5590291 C-10.63739748 412.94436719 -3.51734377 408.50778643 4.45987701 404.4554677 C6.01495908 403.68203954 7.57082526 402.91018628 9.12740201 402.13977069 C13.39453823 400.02206694 17.65015933 397.88208936 21.90420735 395.73824227 C26.49688341 393.42863403 31.09989795 391.13980122 35.70163727 388.84832048 C44.71107422 384.35783219 53.71074527 379.84810067 62.70719013 375.33164964 C73.18157496 370.07402508 83.66508879 364.83472724 94.14892521 359.5959821 C112.85145032 350.24950399 131.54500683 340.88522586 150.23384857 331.51142168 C168.37467341 322.41249502 186.5225937 313.32791998 204.67818451 304.25849199 C224.44465576 294.38433924 244.20736393 284.50273099 263.9633767 274.60766715 C266.06911433 273.55298738 268.17485274 272.49830919 270.28059196 271.4436326 C271.83472355 270.66520885 271.83472355 270.66520885 273.42025173 269.87105936 C280.72768859 266.21151799 288.03768261 262.55711722 295.34858894 258.90451288 C304.25439272 254.45479127 313.15574261 249.99630275 322.05154357 245.52661524 C326.59179931 243.24560851 331.13388781 240.96847264 335.68123627 238.70163393 C339.84175075 236.6274788 343.99657464 234.542367 348.14708593 232.44826999 C349.65151429 231.69165401 351.15798882 230.93909049 352.66665093 230.1909521 C354.7137954 229.1750227 356.75301593 228.14467227 358.79090595 227.11033392 C360.49460778 226.25653276 360.49460778 226.25653276 362.23272783 225.38548309 C365.91097348 223.06677082 368.19036046 220.43848579 370.13008881 216.5590291 C370.65420802 210.26959849 370.14680759 207.69084914 366.13008881 202.5590291 C363.60047328 200.91676978 361.25192029 199.59085422 358.55992889 198.28196001 C357.33430974 197.66140299 357.33430974 197.66140299 356.08393061 197.02830946 C354.18766338 196.07080951 352.2875967 195.12081262 350.38465166 194.17665386 C346.81396438 192.40190487 343.25604897 190.60308409 339.69943619 188.8003583 C331.40655782 184.60172571 323.09912289 180.43231157 314.7903831 176.26517773 C311.32578119 174.5271765 307.86188032 172.78778041 304.39796667 171.04840796 C271.6105907 154.58479725 238.80845906 138.1505321 206.00369072 121.72160959 C201.74811052 119.59031576 197.49255432 117.45897401 193.2370224 115.32758379 C192.17948763 114.79791876 191.12195287 114.26825373 190.0323716 113.72253825 C172.8525545 105.11755455 155.67972984 96.49870712 138.50955324 87.87450598 C120.85237703 79.00602959 103.18843539 70.1511471 85.51794684 61.30922472 C75.6076494 56.3498726 65.70050772 51.38442557 55.80105972 46.40344667 C47.38473573 42.16872349 38.9624584 37.94615433 30.5320652 33.7395045 C26.23260048 31.59365088 21.93627981 29.44204153 17.64762878 27.27464533 C13.7215438 25.29064786 9.78750434 23.32346412 5.84649296 21.36929251 C4.42316275 20.65987545 3.00285058 19.94436342 1.58596794 19.22215496 C-12.26513537 11.99380947 -12.26513537 11.99380947 -25.86991119 17.5590291 Z " fill="#000000" transform="translate(84.86991119384766,43.44097089767456)"/>
</svg>
